<svg height="512pt" viewBox="-4 0 512 512" width="512pt" xmlns="http://www.w3.org/2000/svg"><path d="m323.90625 167.59375c0 39.625-32.121094 71.75-71.75 71.75s-71.753906-32.125-71.753906-71.75c0-39.628906 32.125-71.753906 71.753906-71.753906s71.75 32.125 71.75 71.753906zm0 0" fill="#ffe046"/><path d="m288.105469 105.503906c6.132812 10.574219 9.664062 22.847656 9.664062 35.949219 0 39.628906-32.125 71.753906-71.75 71.753906-13.105469 0-25.378906-3.53125-35.949219-9.667969 12.417969 21.402344 35.5625 35.804688 62.085938 35.804688 39.625 0 71.75-32.125 71.75-71.75 0-26.527344-14.402344-49.671875-35.800781-62.089844zm0 0" fill="#eec707"/><path d="m488.9375 261.894531-19.730469 240.691407c-.433593 5.320312-4.878906 9.414062-10.214843 9.414062h-205.8125l-20.5-250.105469zm0 0" fill="#da2f3c"/><path d="m360.808594 261.894531h133.253906c5.660156 0 10.25-4.589843 10.25-10.25v-20.5c0-5.664062-4.589844-10.25-10.25-10.25h-276.757812v41zm0 0" fill="#c8d2dc"/><path d="m480.738281 220.894531v41h13.324219c5.660156 0 10.25-4.589843 10.25-10.25v-20.5c0-5.664062-4.589844-10.25-10.25-10.25zm0 0" fill="#b9c3cd"/><path d="m232.679688 261.894531 1.679687 20.5h219.871094c5.992187 0 10.707031 5.121094 10.214843 11.09375l-18.042968 218.511719h12.589844c5.335937 0 9.78125-4.09375 10.214843-9.414062l19.730469-240.691407zm0 0" fill="#c62430"/><path d="m15.375 261.894531 19.730469 240.691407c.433593 5.320312 4.878906 9.414062 10.214843 9.414062h205.8125l20.5-250.105469zm0 0" fill="#da2f3c"/><path d="m15.375 261.894531 1.679688 20.5h76.042968c5.363282 0 9.816406 4.132813 10.21875 9.484375l16.554688 220.121094h131.261718l20.5-250.105469zm0 0" fill="#c62430"/><path d="m143.503906 261.894531h-133.253906c-5.660156 0-10.25-4.589843-10.25-10.25v-20.5c0-5.664062 4.589844-10.25 10.25-10.25h276.757812v41zm0 0" fill="#c8d2dc"/><path d="m84.050781 261.894531v-41h59.453125 143.503906v41zm0 0" fill="#b9c3cd"/><path d="m380.285156 239.34375-19.789062 263.175781c-.402344 5.347657-4.859375 9.480469-10.222656 9.480469h-196.238282c-5.359375 0-9.816406-4.132812-10.21875-9.480469l-19.789062-263.175781zm0 0" fill="#da2f3c"/><path d="m124.027344 239.34375 1.542968 20.5h220.085938c5.964844 0 10.671875 5.070312 10.222656 11.019531l-18.128906 241.136719h12.523438c5.363281 0 9.820312-4.132812 10.222656-9.480469l19.789062-263.175781zm0 0" fill="#c62430"/><path d="m252.15625 239.34375h133.253906c5.660156 0 10.25-4.589844 10.25-10.25v-20.5c0-5.664062-4.589844-10.25-10.25-10.25h-266.507812c-5.660156 0-10.25 4.585938-10.25 10.25v20.5c0 5.660156 4.589844 10.25 10.25 10.25zm0 0" fill="#c8d2dc"/><path d="m372.085938 198.34375v41h13.324218c5.660156 0 10.25-4.589844 10.25-10.25v-20.5c0-5.664062-4.589844-10.25-10.25-10.25zm0 0" fill="#b9c3cd"/><g fill="#495959"><path d="m252.15625 78.925781c-4.246094 0-7.6875-3.441406-7.6875-7.6875v-63.550781c0-4.246094 3.441406-7.6875 7.6875-7.6875s7.6875 3.441406 7.6875 7.6875v63.550781c0 4.246094-3.441406 7.6875-7.6875 7.6875zm0 0"/><path d="m282.90625 62.527344c-4.246094 0-7.6875-3.441406-7.6875-7.6875v-47.152344c0-4.246094 3.441406-7.6875 7.6875-7.6875s7.6875 3.441406 7.6875 7.6875v47.152344c0 4.246094-3.441406 7.6875-7.6875 7.6875zm0 0"/><path d="m221.40625 62.527344c-4.246094 0-7.6875-3.441406-7.6875-7.6875v-47.152344c0-4.246094 3.441406-7.6875 7.6875-7.6875s7.6875 3.441406 7.6875 7.6875v47.152344c0 4.246094-3.441406 7.6875-7.6875 7.6875zm0 0"/></g></svg>